<?xml version="1.0" encoding="UTF-8"?><svg version="1.1" xmlns="http://www.w3.org/2000/svg" width="144" height="163"><path d="M0,0 L6,0 L6,138 L-9,138 L-9,137 L-10,137 L-10,136 L-9,136 L-9,135 L-4,135 L-4,93 L-18,93 L-18,92 L-19,92 L-19,90 L-21,90 L-21,89 L-22,89 L-22,87 L-24,87 L-24,86 L-25,86 L-25,84 L-27,84 L-27,83 L-28,83 L-28,57 L-43,57 L-43,69 L-32,69 L-32,70 L-31,70 L-31,80 L-32,80 L-32,81 L-36,81 L-36,80 L-37,80 L-37,75 L-43,75 L-43,95 L-44,95 L-44,96 L-49,96 L-49,104 L-50,104 L-50,105 L-55,105 L-55,110 L-56,110 L-56,111 L-61,111 L-61,120 L-8,120 L-8,121 L-7,121 L-7,122 L-8,122 L-8,123 L-61,123 L-61,129 L-59,129 L-59,130 L-58,130 L-58,131 L-59,131 L-59,132 L-61,132 L-61,135 L-56,135 L-56,136 L-55,136 L-55,140 L-56,140 L-56,141 L-66,141 L-66,140 L-67,140 L-67,132 L-69,132 L-69,131 L-70,131 L-70,130 L-69,130 L-69,129 L-67,129 L-67,123 L-85,123 L-85,128 L-86,128 L-86,129 L-91,129 L-91,135 L-86,135 L-86,136 L-85,136 L-85,140 L-86,140 L-86,141 L-96,141 L-96,140 L-97,140 L-97,123 L-138,123 L-138,120 L-97,120 L-97,117 L-102,117 L-102,116 L-103,116 L-103,111 L-108,111 L-108,110 L-109,110 L-109,105 L-114,105 L-114,104 L-115,104 L-115,99 L-120,99 L-120,98 L-121,98 L-121,93 L-126,93 L-126,92 L-127,92 L-127,58 L-126,58 L-126,57 L-122,57 L-122,58 L-121,58 L-121,69 L-116,69 L-116,70 L-115,70 L-115,75 L-110,75 L-110,76 L-109,76 L-109,81 L-97,81 L-97,76 L-96,76 L-96,75 L-91,75 L-91,70 L-90,70 L-90,69 L-82,69 L-82,64 L-81,64 L-81,63 L-73,63 L-73,58 L-72,58 L-72,57 L-67,57 L-67,19 L-66,19 L-66,18 L-61,18 L-61,13 L-60,13 L-60,12 L-14,12 L-14,13 L-13,13 L-13,18 L-8,18 L-8,19 L-7,19 L-7,50 L-8,50 L-8,51 L-13,51 L-13,78 L-8,78 L-8,79 L-7,79 L-7,87 L-2,87 L-2,88 L-1,88 L-1,57 L-3,57 L-3,56 L-4,56 L-4,4 L-3,4 L-3,3 L-1,3 L-1,1 L0,1 Z M-55,21 L-55,33 L-43,33 L-43,21 Z M-79,117 L-79,120 L-73,120 L-73,117 Z " fill="#000000" transform="translate(138,12)"/><path d="M0,0 L4,0 L4,1 L5,1 L5,5 L4,5 L4,6 L0,6 L0,5 L-1,5 L-1,1 L0,1 Z " fill="#000000" transform="translate(87,36)"/><path d="M0,0 L7,0 L7,1 L8,1 L8,2 L7,2 L7,3 L0,3 L0,2 L-1,2 L-1,1 L0,1 Z " fill="#000000" transform="translate(15,153)"/></svg>
