<?xml version="1.0" encoding="UTF-8"?><svg version="1.1" xmlns="http://www.w3.org/2000/svg" width="144" height="163"><path d="M0,0 L46,0 L46,1 L47,1 L47,6 L52,6 L52,7 L53,7 L53,32 L52,32 L52,33 L23,33 L23,39 L40,39 L40,40 L41,40 L41,44 L40,44 L40,45 L17,45 L17,57 L28,57 L28,58 L29,58 L29,68 L28,68 L28,69 L24,69 L24,68 L23,68 L23,63 L17,63 L17,83 L16,83 L16,84 L11,84 L11,92 L10,92 L10,93 L5,93 L5,98 L4,98 L4,99 L-1,99 L-1,105 L7,105 L7,106 L8,106 L8,110 L7,110 L7,111 L-6,111 L-6,110 L-7,110 L-7,105 L-19,105 L-19,110 L-20,110 L-20,111 L-25,111 L-25,116 L-26,116 L-26,117 L-31,117 L-31,123 L-26,123 L-26,124 L-25,124 L-25,128 L-26,128 L-26,129 L-36,129 L-36,128 L-37,128 L-37,105 L-42,105 L-42,104 L-43,104 L-43,99 L-48,99 L-48,98 L-49,98 L-49,93 L-54,93 L-54,92 L-55,92 L-55,87 L-60,87 L-60,86 L-61,86 L-61,81 L-66,81 L-66,80 L-67,80 L-67,46 L-66,46 L-66,45 L-62,45 L-62,46 L-61,46 L-61,57 L-56,57 L-56,58 L-55,58 L-55,63 L-50,63 L-50,64 L-49,64 L-49,69 L-37,69 L-37,64 L-36,64 L-36,63 L-31,63 L-31,58 L-30,58 L-30,57 L-22,57 L-22,52 L-21,52 L-21,51 L-13,51 L-13,46 L-12,46 L-12,45 L-7,45 L-7,7 L-6,7 L-6,6 L-1,6 L-1,1 L0,1 Z M5,9 L5,15 L11,15 L11,9 Z " fill="#000000" transform="translate(80,17)"/><path d="M0,0 L30,0 L30,1 L31,1 L31,2 L30,2 L30,3 L0,3 Z " fill="#000000" transform="translate(0,125)"/><path d="M0,0 L43,0 L43,3 L0,3 L0,2 L-1,2 L-1,1 L0,1 Z " fill="#000000" transform="translate(101,125)"/><path d="M0,0 L10,0 L10,3 L0,3 L0,2 L-1,2 L-1,1 L0,1 Z " fill="#000000" transform="translate(134,134)"/><path d="M0,0 L7,0 L7,1 L8,1 L8,2 L7,2 L7,3 L0,3 L0,2 L-1,2 L-1,1 L0,1 Z " fill="#000000" transform="translate(98,137)"/></svg>
